<?xml version="1.0" standalone="no"?><!DOCTYPE svg PUBLIC "-//W3C//DTD SVG 1.1//EN" "http://www.w3.org/Graphics/SVG/1.1/DTD/svg11.dtd"><svg t="1526353832366" class="icon" style="" viewBox="0 0 1024 1024" version="1.1" xmlns="http://www.w3.org/2000/svg" p-id="1701" xmlns:xlink="http://www.w3.org/1999/xlink" width="128" height="128"><defs><style type="text/css"></style></defs><path d="M143.851505 520.527734a35.1989 35.1989 0 1 1 0.031999-70.4298 35.1989 35.1989 0 0 1-0.031999 70.4298z m0-53.15034a17.983438 17.983438 0 0 0 0 35.902878c9.823693 0 17.951439-7.99975 17.951439-17.951439a18.079435 18.079435 0 0 0-17.951439-17.951439z" fill="#47B7F8" p-id="1702"></path><path d="M116.204369 312.182244h-15.455517v-15.423518a7.423768 7.423768 0 0 0-14.847536 0v15.423518h-15.423518a7.423768 7.423768 0 0 0 0 14.847536h15.423518v15.423518a7.423768 7.423768 0 1 0 14.847536 0v-15.423518h15.423518a7.423768 7.423768 0 0 0 0.031999-14.847536z m847.045529 1.247961h-15.423518v-15.423518a7.391769 7.391769 0 1 0-14.815537 0v15.423518h-15.423518a7.423768 7.423768 0 1 0 0 14.847536h15.423518v15.423518a7.423768 7.423768 0 1 0 14.815537 0v-15.391519h15.391519a7.423768 7.423768 0 1 0 0.031999-14.879535z" fill="#3883F8" p-id="1703"></path><path d="M916.627355 468.305365h-17.951439v-17.951439a8.63973 8.63973 0 1 0-17.343458 0v17.951439h-17.983438a8.63973 8.63973 0 1 0 0 17.343458h17.951439v17.951439a8.671729 8.671729 0 0 0 17.343458 0v-17.951439h17.951439a8.63973 8.63973 0 0 0 0.031999-17.343458z" fill="#47B7F8" p-id="1704"></path><path d="M220.553108 233.784694a13.023593 13.023593 0 1 0 26.015187 0 13.023593 13.023593 0 0 0-26.015187 0zM797.079091 302.358551a17.407456 17.407456 0 0 0 26.047186 15.03953 17.343458 17.343458 0 1 0-26.047186-15.03953z" fill="#2EDDBD" p-id="1705"></path><path d="M687.258523 131.163901a17.407456 17.407456 0 1 0 34.782913-0.031999 17.407456 17.407456 0 0 0-34.782913 0.031999z" fill="#47B7F8" p-id="1706"></path><path d="M492.864598 139.035655a35.1989 35.1989 0 1 1 0.031999-70.429799 35.1989 35.1989 0 0 1-0.031999 70.429799z m0-53.11834a17.951439 17.951439 0 1 0 0 35.934877 17.951439 17.951439 0 0 0 0-35.934877z" fill="#2EDDBD" p-id="1707"></path><path d="M285.351083 55.614262a4.863848 4.863848 0 0 0-6.751789 0 4.79985 4.79985 0 0 0-1.375957 3.423893c0 1.27996 0.447986 2.527921 1.343958 3.423893l15.423518 15.423518a4.671854 4.671854 0 0 0 3.423893 1.375957c1.27996 0 2.527921-0.479985 3.423893-1.375957a4.863848 4.863848 0 0 0 0-6.751789l-15.487516-15.519515z m40.670729 40.702728a4.607856 4.607856 0 0 0-3.423893-1.375957 4.767851 4.767851 0 0 0-3.423893 1.375957 4.79985 4.79985 0 0 0 0 6.71979l15.423518 15.423518a4.543858 4.543858 0 0 0 3.423893 1.375957 4.767851 4.767851 0 0 0 3.423893-1.375957 4.543858 4.543858 0 0 0 1.375957-3.423893 4.767851 4.767851 0 0 0-1.375957-3.423893l-15.423518-15.295522z m-3.423893-17.023468c1.27996 0 2.527921-0.479985 3.423893-1.375957l15.423518-15.455517a4.543858 4.543858 0 0 0 1.375957-3.423893 4.767851 4.767851 0 0 0-1.375957-3.423893 4.79985 4.79985 0 0 0-6.71979 0l-15.455517 15.423518a4.863848 4.863848 0 0 0 0 6.751789 4.639855 4.639855 0 0 0 3.327896 1.503953z m-28.703103 17.023468l-15.423518 15.423518a4.79985 4.79985 0 0 0-1.375957 3.423893 4.703853 4.703853 0 0 0 4.79985 4.79985c1.27996 0 2.527921-0.479985 3.423893-1.375957l15.423518-15.423518a4.79985 4.79985 0 0 0 0-6.71979 4.79985 4.79985 0 0 0-6.847786-0.127996z m2.975907-9.27971a4.831849 4.831849 0 0 0-4.79985-4.79985h-21.823318c-2.623918 0-4.79985 2.175932-4.79985 4.79985s2.175932 4.79985 4.79985 4.79985h21.823318c2.751914 0 4.79985-2.175932 4.79985-4.79985z m52.670354-4.79985h-21.823318c-2.623918 0-4.79985 2.175932-4.79985 4.79985s2.175932 4.79985 4.79985 4.79985h21.823318c2.655917 0 4.79985-2.175932 4.79985-4.79985s-2.143933-4.79985-4.79985-4.79985zM310.022312 42.590669a4.79985 4.79985 0 0 0-4.79985 4.79985v21.823318c0 2.623918 2.143933 4.79985 4.79985 4.79985 2.623918 0 4.79985-2.175932 4.79985-4.79985v-21.823318a4.831849 4.831849 0 0 0-4.79985-4.79985z m0 57.470204a4.79985 4.79985 0 0 0-4.79985 4.79985v21.727321c0 2.623918 2.143933 4.79985 4.79985 4.79985 2.623918 0 4.79985-2.175932 4.79985-4.79985v-21.727321a4.831849 4.831849 0 0 0-4.79985-4.79985z" fill="#47B7F8" p-id="1708"></path><path d="M711.641761 901.987813c12.15962 0 22.207306-9.983688 21.087341-21.791319-11.935627-127.580013-98.972907-226.776913-204.921596-226.776913s-193.113965 99.1969-204.921596 226.776913c-1.151964 11.679635 8.927721 21.791319 21.087341 21.791319h367.66851zM407.427268 475.921127c0 42.654667 22.943283 82.109434 60.190119 103.420769a120.95622 120.95622 0 0 0 120.348239 0 119.228274 119.228274 0 0 0 60.190119-103.420769c0-42.686666-22.943283-82.109434-60.190119-103.452767s-83.133402-21.343333-120.348239 0a119.35627 119.35627 0 0 0-60.190119 103.452767z" fill="#C7E9FC" p-id="1709"></path><path d="M527.839505 604.109122c-102.620793 0-186.138183-82.941408-186.138183-184.762227s83.51739-184.730227 186.138183-184.730227c102.620793 0 186.106184 82.909409 186.106184 184.730227s-83.51739 184.762226-186.106184 184.762227z m0-327.029781c-79.165526 0-143.515515 63.806006-143.515515 142.235555 0 78.461548 64.349989 142.267554 143.515515 142.267555 79.133527 0 143.515515-63.806006 143.515515-142.267555-0.031999-78.429549-64.381988-142.235555-143.515515-142.235555zM779.575638 1023.968001H276.071373c-14.303553 0-28.063123-6.047811-37.694822-16.607481a46.654542 46.654542 0 0 1-12.351614-36.414862c17.503453-188.090122 147.291397-329.90969 301.814568-329.90969s284.279116 141.819568 301.782569 329.90969c1.27996 13.375582-3.1999 26.303178-12.383613 36.414862-9.5997 10.55967-23.327271 16.607481-37.662823 16.607481z m-251.736133-340.309365c-132.411862 0-243.960376 125.212087-259.415893 291.1909a4.735852 4.735852 0 0 0 1.471954 3.775882 8.383738 8.383738 0 0 0 6.303803 2.623918h503.408268a8.95972 8.95972 0 0 0 6.271804-2.623918 4.703853 4.703853 0 0 0 1.503953-3.775882c-15.583513-165.978813-127.132027-291.1909-259.543889-291.1909z" fill="#3883F8" p-id="1710"></path><path d="M779.575638 1023.968001H276.071373c-14.303553 0-28.063123-6.047811-37.694822-16.607481a46.654542 46.654542 0 0 1-12.351614-36.414862c17.503453-188.090122 147.291397-329.90969 301.814568-329.90969s284.279116 141.819568 301.782569 329.90969c1.27996 13.375582-3.1999 26.303178-12.383613 36.414862-9.5997 10.55967-23.327271 16.607481-37.662823 16.607481z m-251.736133-340.309365c-132.411862 0-243.960376 125.212087-259.415893 291.1909a4.735852 4.735852 0 0 0 1.471954 3.775882 8.383738 8.383738 0 0 0 6.303803 2.623918h503.408268a8.95972 8.95972 0 0 0 6.271804-2.623918 4.703853 4.703853 0 0 0 1.503953-3.775882c-15.583513-165.978813-127.132027-291.1909-259.543889-291.1909z" fill="#3883F8" p-id="1711"></path></svg>